<svg width="2281" height="635" viewBox="0 0 2281 635" fill="none" xmlns="http://www.w3.org/2000/svg">
<g clip-path="url(#clip0_48_2133)">
<path d="M2197.86 242.2C2223.52 242.2 2243.82 249.083 2258.76 262.85C2273.92 276.616 2281.51 295.4 2281.51 319.2C2281.51 327.133 2280.92 334.133 2279.76 340.2C2278.36 347.666 2276.96 353.033 2275.56 356.3H2145.71C2145.47 357.7 2145.36 359.8 2145.36 362.6C2145.36 371.466 2147.46 378 2151.66 382.2C2156.09 386.4 2161.92 388.5 2169.16 388.5C2180.59 388.5 2189.69 383.366 2196.46 373.1H2269.26C2263.89 386.633 2255.84 398.766 2245.11 409.5C2234.61 420 2222.12 428.283 2207.66 434.35C2193.42 440.416 2178.26 443.45 2162.16 443.45C2136.49 443.45 2116.07 436.45 2100.91 422.45C2085.74 408.45 2078.16 389.2 2078.16 364.7C2078.16 357.7 2078.86 350.35 2080.26 342.65C2083.99 322.116 2091.34 304.383 2102.31 289.45C2113.51 274.283 2127.27 262.616 2143.61 254.45C2160.17 246.283 2178.26 242.2 2197.86 242.2ZM2212.21 325.5C2212.67 322.233 2212.91 320.133 2212.91 319.2C2212.91 311.733 2210.57 306.133 2205.91 302.4C2201.24 298.433 2195.17 296.45 2187.71 296.45C2179.07 296.45 2171.61 298.9 2165.31 303.8C2159.01 308.7 2154.34 315.933 2151.31 325.5H2212.21Z" fill="#4B4E57"/>
<path d="M1943.87 242.2C1957.17 242.2 1968.25 244.883 1977.12 250.25C1986.22 255.616 1992.52 262.85 1996.02 271.95L2000.92 244.65H2069.52L2035.22 438.9C2031.95 457.333 2025.54 473.9 2015.97 488.6C2006.4 503.533 1993.45 515.433 1977.12 524.3C1960.79 533.166 1941.3 537.6 1918.67 537.6C1889.97 537.6 1867.69 531.066 1851.82 518C1836.19 505.166 1828.37 487.55 1828.37 465.15L1828.72 458.15H1896.27C1896.74 464.45 1899.42 469.35 1904.32 472.85C1909.45 476.35 1916.34 478.1 1924.97 478.1C1948.3 478.1 1962.19 465.033 1966.62 438.9L1971.17 413.7C1964.4 422.8 1955.54 430.033 1944.57 435.4C1933.84 440.766 1921.82 443.45 1908.52 443.45C1887.99 443.45 1871.42 436.683 1858.82 423.15C1846.45 409.383 1840.27 390.716 1840.27 367.15C1840.27 359.45 1840.97 351.283 1842.37 342.65C1846.1 322.35 1852.99 304.616 1863.02 289.45C1873.05 274.283 1885.07 262.616 1899.07 254.45C1913.3 246.283 1928.24 242.2 1943.87 242.2ZM1983.77 342.65C1984.47 339.15 1984.82 335.883 1984.82 332.85C1984.82 323.05 1982.02 315.466 1976.42 310.1C1971.05 304.733 1964.05 302.05 1955.42 302.05C1945.15 302.05 1935.94 305.666 1927.77 312.9C1919.6 319.9 1914.47 329.816 1912.37 342.65C1911.67 346.15 1911.32 349.533 1911.32 352.8C1911.32 362.6 1914 370.183 1919.37 375.55C1924.97 380.916 1932.09 383.6 1940.72 383.6C1950.99 383.6 1960.2 379.983 1968.37 372.75C1976.54 365.516 1981.67 355.483 1983.77 342.65Z" fill="#4B4E57"/>
<path d="M1776.83 280.349C1786.39 268.916 1797.24 259.816 1809.38 253.049C1821.51 246.283 1833.88 242.899 1846.48 242.899L1833.88 316.049H1814.63C1800.16 316.049 1788.84 318.733 1780.68 324.099C1772.51 329.466 1767.03 338.799 1764.23 352.099L1748.48 440.999H1679.53L1714.53 244.649H1783.13L1776.83 280.349Z" fill="#4B4E57"/>
<path d="M1548.37 443.45C1531.33 443.45 1516.17 440.066 1502.87 433.3C1489.8 426.533 1479.65 416.966 1472.42 404.6C1465.18 392.233 1461.57 377.766 1461.57 361.2C1461.57 338.8 1466.82 318.5 1477.32 300.3C1488.05 282.1 1502.75 267.866 1521.42 257.6C1540.08 247.333 1560.97 242.2 1584.07 242.2C1601.1 242.2 1616.15 245.583 1629.22 252.35C1642.52 259.116 1652.78 268.8 1660.02 281.4C1667.48 293.766 1671.22 308.233 1671.22 324.8C1671.22 347.433 1665.85 367.85 1655.12 386.05C1644.38 404.016 1629.68 418.133 1611.02 428.4C1592.35 438.433 1571.47 443.45 1548.37 443.45ZM1558.87 384.3C1567.03 384.3 1574.27 381.733 1580.57 376.6C1587.1 371.466 1592 364.816 1595.27 356.65C1598.77 348.483 1600.52 340.083 1600.52 331.45C1600.52 321.65 1597.95 314.183 1592.82 309.05C1587.92 303.916 1581.5 301.35 1573.57 301.35C1565.17 301.35 1557.82 303.916 1551.52 309.05C1545.45 314.183 1540.67 320.833 1537.17 329C1533.9 337.166 1532.27 345.683 1532.27 354.55C1532.27 364.35 1534.72 371.816 1539.62 376.95C1544.52 381.85 1550.93 384.3 1558.87 384.3Z" fill="#4B4E57"/>
<path d="M1471.87 194.25L1462.42 248.85H1363.72L1356.02 292.25H1428.47L1419.37 344.4H1346.92L1329.77 441H1260.82L1304.57 194.25H1471.87Z" fill="#4B4E57"/>
<path d="M1169.05 242.2C1194.72 242.2 1215.02 249.083 1229.95 262.85C1245.12 276.616 1252.7 295.4 1252.7 319.2C1252.7 327.133 1252.12 334.133 1250.95 340.2C1249.55 347.666 1248.15 353.033 1246.75 356.3H1116.9C1116.67 357.7 1116.55 359.8 1116.55 362.6C1116.55 371.466 1118.65 378 1122.85 382.2C1127.28 386.4 1133.12 388.5 1140.35 388.5C1151.78 388.5 1160.88 383.366 1167.65 373.1H1240.45C1235.08 386.633 1227.03 398.766 1216.3 409.5C1205.8 420 1193.32 428.283 1178.85 434.35C1164.62 440.416 1149.45 443.45 1133.35 443.45C1107.68 443.45 1087.27 436.45 1072.1 422.45C1056.93 408.45 1049.35 389.2 1049.35 364.7C1049.35 357.7 1050.05 350.35 1051.45 342.65C1055.18 322.116 1062.53 304.383 1073.5 289.45C1084.7 274.283 1098.47 262.616 1114.8 254.45C1131.37 246.283 1149.45 242.2 1169.05 242.2ZM1183.4 325.5C1183.87 322.233 1184.1 320.133 1184.1 319.2C1184.1 311.733 1181.77 306.133 1177.1 302.4C1172.43 298.433 1166.37 296.45 1158.9 296.45C1150.27 296.45 1142.8 298.9 1136.5 303.8C1130.2 308.7 1125.53 315.933 1122.5 325.5H1183.4Z" fill="#4B4E57"/>
<path d="M985.907 280.349C995.474 268.916 1006.32 259.816 1018.46 253.049C1030.59 246.283 1042.96 242.899 1055.56 242.899L1042.96 316.049H1023.71C1009.24 316.049 997.924 318.733 989.757 324.099C981.591 329.466 976.107 338.799 973.307 352.099L957.557 440.999H888.607L923.607 244.649H992.207L985.907 280.349Z" fill="#4B4E57"/>
<path d="M884.541 244.649L849.891 440.999H780.941L815.941 244.649H884.541Z" fill="#4B4E57"/>
<path d="M795.8 194.25L786.35 248.85H687.65L679.95 292.25H752.4L743.3 344.4H670.85L653.7 441H584.75L628.5 194.25H795.8Z" fill="#4B4E57"/>
<path d="M858.857 165L888.84 218H821L858.857 165Z" fill="url(#paint0_linear_48_2133)"/>
<path d="M141.023 97.3687L237.978 -0.000178427L334.932 97.3687L237.978 194.737L141.023 97.3687Z" fill="url(#paint1_linear_48_2133)"/>
<path d="M141.023 537.631L237.978 635L334.932 537.631L237.978 440.262L141.023 537.631Z" fill="url(#paint2_linear_48_2133)"/>
<path d="M475 387.136V484.491L378.061 387.136H475ZM475 387.134H378.061V249.434H378.071L475 152.09V387.134Z" fill="url(#paint3_linear_48_2133)"/>
<path d="M0 387.136V484.491L96.9395 387.136H0ZM0 387.134H96.9395V249.434H96.9287L0 152.09V387.134Z" fill="url(#paint4_linear_48_2133)"/>
<path d="M237.201 248.147L326.378 388.082H148.023L237.201 248.147Z" fill="url(#paint5_linear_48_2133)"/>
</g>
<defs>
<linearGradient id="paint0_linear_48_2133" x1="773.982" y1="165" x2="773.982" y2="218" gradientUnits="userSpaceOnUse">
<stop stop-color="#FFE53B"/>
<stop offset="0.514423" stop-color="#FF5800"/>
<stop offset="0.783654" stop-color="#FF4500"/>
<stop offset="1" stop-color="#D72638"/>
</linearGradient>
<linearGradient id="paint1_linear_48_2133" x1="238.041" y1="5.00288" x2="238.039" y2="195.116" gradientUnits="userSpaceOnUse">
<stop stop-color="#4B4E57"/>
<stop offset="0.723069" stop-color="#9096A7"/>
</linearGradient>
<linearGradient id="paint2_linear_48_2133" x1="238.041" y1="629.997" x2="238.039" y2="439.883" gradientUnits="userSpaceOnUse">
<stop stop-color="#4B4E57"/>
<stop offset="0.723069" stop-color="#9096A7"/>
</linearGradient>
<linearGradient id="paint3_linear_48_2133" x1="238.962" y1="331.301" x2="474.979" y2="313.02" gradientUnits="userSpaceOnUse">
<stop offset="0.0432692" stop-color="#9096A7"/>
<stop offset="0.652943" stop-color="#9096A7"/>
<stop offset="1" stop-color="#4B4E57"/>
</linearGradient>
<linearGradient id="paint4_linear_48_2133" x1="236.038" y1="331.301" x2="0.0209495" y2="313.02" gradientUnits="userSpaceOnUse">
<stop offset="0.0432692" stop-color="#9096A7"/>
<stop offset="0.683284" stop-color="#9096A7"/>
<stop offset="1" stop-color="#4B4E57"/>
</linearGradient>
<linearGradient id="paint5_linear_48_2133" x1="237.201" y1="248.147" x2="237.201" y2="388.082" gradientUnits="userSpaceOnUse">
<stop stop-color="#FFE53B"/>
<stop offset="0.514423" stop-color="#FF5800"/>
<stop offset="0.783654" stop-color="#FF4500"/>
<stop offset="1" stop-color="#D72638"/>
</linearGradient>
<clipPath id="clip0_48_2133">
<rect width="2281" height="635" fill="white"/>
</clipPath>
</defs>
</svg>
